<svg xmlns="http://www.w3.org/2000/svg" id="Layer_1" viewBox="0 0 1428 314"><style id="style2">.st0{fill:#FFFFFF;}</style><g id="g92"><g id="g14"><path id="path4" d="M204.5 145.9c0 39.7-32.2 72-71.8 72h-20.9v-96.6h3.9c22 0 35.6 17.5 35.6 33.8v2.1h6.3V77.7h-6.3v2.1c0 17-13.3 34.6-35.6 34.6h-3.9V17.8h22.5c33.8 0 61.3 27.4 61.3 61v2.1h6.6v-70H27.7v6.8h38v200.1h-38v6.8h183.7v-81h-6.8l-.1 2.3zM198 63.3c-5.1-20.8-20.2-37.9-40.6-45.5H198v45.5zM88.9 18h18.7v200H88.9V18zm68.5 199.9c25.4-8.8 44.3-30.4 49.7-56.5v56.5h-49.7zm-33.2-100.1c15.4-3 25.2-14 29.3-25.5V143c-4.1-11.4-14-22.2-29.3-25.2z" class="st0"/><path id="path6" d="M330.3 17.8h38v200.1h-38v6.8h122.1v-6.8h-38V17.8h38V11H330.3v6.8zm60.6-.1h19.3v200.2H391l-.1-200.2z" class="st0"/><path id="path8" d="M716.4 17.8h37l-58.2 151.5L637 17.8h39.6V11H547.7v6.8H589l82.9 207h5.5l83.4-207h38.6V11h-83.1l.1 6.8zm-103.7 0h19.8l59.7 158.7-8 20-71.5-178.7z" class="st0"/><path id="path10" d="M1071.6 145.9c0 39.7-32.2 72-71.8 72h-20.9v-96.6h3.9c22 0 35.6 17.5 35.6 33.8v2.1h6.3V77.7h-6.3v2.1c0 17-13.3 34.6-35.6 34.6h-3.9V17.8h22.5c33.8 0 61.3 27.4 61.3 61v2.1h6.6v-70H894.8v6.8h38v200.1h-38v6.8h183.7v-81h-6.8l-.1 2.3zm-6.5-82.6c-5.1-20.8-20.3-37.9-40.6-45.5h40.6v45.5zM955.6 17.8h19.1V218h-19.1V17.8zm68.9 200.1c25.4-8.8 44.3-30.4 49.7-56.5v56.5h-49.7zm-33.2-100.1c15.4-3 25.2-14 29.3-25.5V143c-4.1-11.4-14-22.2-29.3-25.2z" class="st0"/><path id="path12" d="M1336.2 10.9v6.8h32l-50 99.8-50-99.8h31.4v-6.8h-117.9v6.8h38.8l55.2 110v90.1h-38v6.8h122.1v-6.8h-38v-92.5l53.9-107.6h38.8v-6.8h-78.3zm-37.3 113.9l-53-107h17.6l54.1 107.9.1.2v92H1299l-.1-93.1z" class="st0"/></g><g id="g80"><path id="path16" d="M49.5 291.9c1 .7 1.8 1.5 2.4 2.6s1 2.4 1 3.9-.3 2.9-1 4-1.5 2.1-2.6 2.8c-1 .7-2.2 1.3-3.6 1.6-1.3.4-2.7.6-4.1.6H25.8v-1.7c.4 0 .9-.1 1.6-.2s1.2-.2 1.5-.4c.5-.2.8-.5 1-.9s.3-.8.3-1.4v-23.9c0-.5-.1-1-.3-1.4s-.5-.7-1.1-1c-.5-.2-1-.4-1.6-.5s-1.1-.2-1.5-.2v-1.7h15.4c1.2 0 2.3.1 3.4.4 1.1.2 2.1.7 3.1 1.2.9.5 1.7 1.3 2.3 2.2.6.9.9 2.1.9 3.4 0 1.2-.2 2.2-.6 3.1-.4.9-1 1.7-1.8 2.4-.7.6-1.5 1.2-2.5 1.6s-1.9.8-3 1v.2c1 .1 2 .3 3.2.7 1.4.4 2.5.9 3.4 1.6zm-5.7-5c.6-.7 1-1.4 1.2-2.2.2-.8.3-1.7.3-2.8 0-1.8-.5-3.3-1.5-4.3s-2.6-1.6-4.7-1.6h-1.9c-.8 0-1.4 0-1.9.1v12.8h3c1.3 0 2.4-.2 3.3-.5.9-.4 1.7-.9 2.2-1.5zm3.3 10.6c0-2-.7-3.6-2-4.9s-3.2-1.9-5.7-1.9h-2.5s-1.2 0-1.5.1v11.7c0 1 .4 1.7 1.2 2.2s1.9.8 3.3.8c2.3 0 4.1-.7 5.4-2 1.2-1.4 1.8-3.4 1.8-6z" class="st0"/><path id="path18" d="M100.4 275.8c-.4 0-1.1.1-1.9.3-.8.2-1.5.4-2.1.8-.5.4-.9 1.1-1.1 2.2s-.3 2.5-.3 4.1v14.5c0 1.8-.4 3.4-1.1 4.8-.8 1.4-1.8 2.5-3 3.4-1.2.8-2.5 1.5-3.9 1.8-1.4.4-2.7.6-3.9.6-2 0-3.8-.3-5.4-.8s-2.9-1.2-3.9-2.1-1.8-1.9-2.4-3.1c-.5-1.1-.8-2.4-.8-3.6V279c0-.5-.1-1-.3-1.4-.2-.4-.5-.7-1.1-1-.4-.2-.9-.4-1.5-.5s-1.1-.2-1.5-.2v-1.7H80v1.7c-.4 0-1 .1-1.7.2s-1.2.2-1.5.4c-.5.2-.9.5-1.1.9s-.3.9-.3 1.4v18.4c0 .9.1 1.8.3 2.8.2 1 .6 1.9 1.2 2.7.6.9 1.4 1.6 2.5 2.1 1 .5 2.5.8 4.3.8 1.7 0 3.2-.3 4.3-.8s2.1-1.3 2.8-2.2c.6-.8 1.1-1.7 1.4-2.6s.4-1.9.4-2.8v-13.6c0-1.7-.1-3.2-.4-4.3-.2-1.1-.6-1.8-1.1-2.2-.5-.4-1.3-.7-2.2-.9-.9-.2-1.7-.3-2.2-.4v-1.7h13.6l.1 1.7z" class="st0"/><path id="path20" d="M141 275.8c-.3 0-.7.1-1.3.3-.6.2-1 .4-1.2.6-.6.4-1 .7-1.2.9-.2.2-.6.7-1.3 1.6-1.2 1.7-2.3 3.5-3.4 5.2-1 1.8-2.3 4-3.9 6.7-.6 1-1 1.8-1.1 2.4-.2.6-.3 1.5-.3 2.7v6.4c0 .6.1 1.1.3 1.5.2.4.6.7 1.2 1 .3.1.9.3 1.8.5.8.2 1.5.3 2 .3v1.7H117v-1.7c.4 0 1.1-.1 2-.2s1.5-.2 1.8-.3c.6-.2 1-.6 1.2-1s.3-.9.3-1.5v-8.1c0-.3-.2-.7-.5-1.4s-.7-1.4-1.1-2.2c-.9-1.8-2-3.8-3.1-5.9s-2.1-3.9-3-5.4c-.5-.9-1-1.6-1.4-2s-.9-.9-1.4-1.2c-.4-.2-.8-.4-1.3-.5s-1-.2-1.4-.2v-1.7h14.2v1.7c-1.6 0-2.7.1-3.4.3-.7.2-1 .5-1 .8 0 .1 0 .3.1.5s.2.5.4.9.4.9.7 1.4c.3.5.5 1 .8 1.5.7 1.4 1.5 2.8 2.2 4.2.8 1.4 1.8 3.2 3 5.4 2.5-4 4.3-7 5.6-9.3 1.3-2.2 1.9-3.5 1.9-4 0-.4-.1-.7-.4-.9-.3-.2-.6-.4-1.1-.5s-.9-.2-1.5-.2c-.5 0-1-.1-1.5-.1v-1.7H141v1.5z" class="st0"/><path id="path22" d="M204.3 288c-.9.1-1.9.3-2.8.6s-1.7.7-2.2 1.4c-.3.4-.7.9-1 1.7-.3.7-.7 1.6-1.2 2.6s-.9 2-1.4 3-1.1 1.9-1.9 2.9c.6.8 1.4 1.6 2.3 2.5.9.9 1.7 1.5 2.3 1.9s1.5.7 2.7.9 2.1.4 2.8.4v1.7h-9.7l-3.5-4c-.5.6-1.1 1.1-1.8 1.7s-1.4 1.1-2.1 1.6c-.8.5-1.6.8-2.5 1.1-.8.3-1.8.4-2.9.4-1.2 0-2.3-.2-3.4-.5s-2.2-.9-3.1-1.6c-.9-.7-1.6-1.6-2.2-2.8-.6-1.1-.8-2.5-.8-4 0-1.9.5-3.7 1.5-5.3 1-1.6 2.9-3.2 5.7-5-1.3-1.7-2.3-3.1-3-4.3s-1.1-2.6-1.1-4.1c0-1.1.2-2.1.6-3 .4-.9 1-1.7 1.8-2.4.7-.6 1.6-1.1 2.6-1.4s2.1-.5 3.1-.5c1.3 0 2.4.2 3.3.6.9.4 1.7.9 2.3 1.6.5.6 1 1.3 1.3 2.1.3.8.4 1.6.4 2.3 0 1.9-.6 3.5-1.7 4.8-1.2 1.4-2.8 2.6-4.8 3.6 1.5 2 2.9 3.8 4.3 5.4 1.4 1.6 2.8 3.2 4.1 4.8 1-1.7 1.9-3.3 2.4-4.7.6-1.5.9-2.8.9-3.9 0-.5-.4-.9-1.1-1.2-.7-.3-1.7-.6-3-.8v-1.7h12.6v1.6h.2zm-14.7 14c-1.5-1.8-3.1-3.9-4.9-6.1-1.8-2.2-3.3-4.1-4.4-5.6-1.3.9-2.2 1.9-2.7 3.1s-.8 2.5-.8 4c0 2.1.6 3.9 1.8 5.3s2.8 2.1 4.9 2.1c1.1 0 2.3-.2 3.4-.7s2-1.1 2.7-2.1zm-1.9-21.7c0-1.6-.4-2.8-1.1-3.7-.7-.9-1.7-1.3-3-1.3-.7 0-1.3.1-1.8.4s-.9.7-1.2 1.1-.5.9-.7 1.4c-.1.5-.2.9-.2 1.3 0 1.1.3 2.2.8 3.3.6 1.1 1.4 2.4 2.6 4 1.6-.9 2.8-1.9 3.5-2.9.8-.9 1.1-2.2 1.1-3.6z" class="st0"/><path id="path24" d="M257.8 292.1c.7.8 1.2 1.6 1.6 2.6.3.9.5 2 .5 3.3 0 2.9-1.1 5.4-3.3 7.3-2.2 1.9-4.9 2.9-8.1 2.9-1.5 0-3-.2-4.5-.7s-2.8-1-3.8-1.7l-1 1.7h-1.9L237 296h1.9c.4 1.4.8 2.7 1.4 3.8s1.2 2.2 2.1 3.2c.8.9 1.8 1.7 2.9 2.2s2.4.8 3.8.8c1.1 0 2-.1 2.8-.4s1.5-.7 2-1.2.9-1.1 1.1-1.8c.2-.7.4-1.5.4-2.4 0-1.3-.4-2.6-1.1-3.7-.8-1.2-1.9-2-3.4-2.6-1-.4-2.2-.9-3.5-1.3-1.3-.5-2.4-1-3.4-1.4-1.9-.8-3.3-2-4.4-3.3-1-1.4-1.6-3.2-1.6-5.4 0-1.3.3-2.4.8-3.5s1.3-2.1 2.2-2.9 2-1.5 3.2-1.9c1.2-.5 2.5-.7 3.9-.7 1.5 0 2.9.2 4.1.7 1.2.5 2.3 1 3.3 1.6l1-1.6h1.9l.2 11.1h-1.9c-.3-1.3-.7-2.5-1.2-3.6s-1-2.2-1.7-3.1-1.5-1.6-2.5-2.2c-1-.5-2.2-.8-3.6-.8-1.5 0-2.8.5-3.8 1.4s-1.6 2.1-1.6 3.5.3 2.6 1 3.6c.7.9 1.7 1.7 2.9 2.3 1.1.5 2.3 1 3.4 1.4 1.1.4 2.2.8 3.2 1.3.9.4 1.8.9 2.7 1.4.9.5 1.7.9 2.3 1.6z" class="st0"/><path id="path26" d="M301.5 297.6l-.6 9.8h-27.6v-1.7c.5 0 1.1-.1 1.9-.2s1.3-.2 1.5-.3c.5-.2.8-.5 1-.9s.3-.9.3-1.4V279c0-.5-.1-1-.3-1.4-.2-.4-.5-.7-1.1-1-.4-.2-1-.4-1.7-.5s-1.3-.3-1.7-.3v-1.7H299v8h-1.8c-.3-1.2-1-2.5-2-3.8s-2-2.1-3-2.2c-.5-.1-1.1-.1-1.7-.1H283v13.2h3.8c1.2 0 2.1-.1 2.6-.3s1-.6 1.5-1.1c.3-.5.6-1.1.9-1.8.2-.8.4-1.5.5-2.1h1.8v13h-1.8c-.1-.8-.2-1.5-.5-2.4-.3-.8-.6-1.4-.9-1.8-.5-.6-1-1-1.7-1.2-.6-.2-1.4-.3-2.5-.3h-3.8v10c0 1 .1 1.8.2 2.4s.4 1 .8 1.3 1 .5 1.7.6 1.7.1 3 .1h2s1.6 0 2.1-.1l1.8-.3c.6-.2 1.1-.4 1.3-.7.7-.8 1.5-1.9 2.3-3.4s1.3-2.6 1.5-3.4h1.9v-.1z" class="st0"/><path id="path28" d="M341 297.5l-.7 9.9h-26v-1.7c.4 0 .9-.1 1.6-.2s1.2-.2 1.5-.3c.5-.2.8-.5 1-.9s.3-.9.3-1.5V279c0-.5-.1-1-.3-1.4-.2-.4-.5-.7-1.1-1-.4-.2-.9-.4-1.5-.6s-1.2-.3-1.6-.3V274h14.1v1.7c-.4 0-1 .1-1.7.2s-1.2.3-1.5.4c-.5.2-.9.5-1.1 1s-.3.9-.3 1.5v22.4c0 1 .1 1.8.2 2.4s.3 1 .7 1.3c.4.3.9.5 1.6.6s1.7.1 3 .1h1.8c.6 0 1.2-.1 1.8-.2.5-.1 1.1-.2 1.5-.4.5-.2.8-.4 1-.6.6-.7 1.4-1.8 2.2-3.3.9-1.5 1.4-2.6 1.8-3.6h1.7z" class="st0"/><path id="path30" d="M379.4 297.5l-.7 9.9h-26v-1.7c.4 0 .9-.1 1.6-.2s1.2-.2 1.5-.3c.5-.2.8-.5 1-.9s.3-.9.3-1.5V279c0-.5-.1-1-.3-1.4-.2-.4-.5-.7-1.1-1-.4-.2-.9-.4-1.5-.6s-1.2-.3-1.6-.3V274h14.1v1.7c-.4 0-1 .1-1.7.2s-1.2.3-1.5.4c-.5.2-.9.5-1.1 1s-.3.9-.3 1.5v22.4c0 1 .1 1.8.2 2.4s.3 1 .7 1.3c.4.3.9.5 1.6.6s1.7.1 3 .1h1.8c.6 0 1.2-.1 1.8-.2.5-.1 1.1-.2 1.5-.4.5-.2.8-.4 1-.6.6-.7 1.4-1.8 2.2-3.3.9-1.5 1.4-2.6 1.8-3.6h1.7z" class="st0"/><path id="path32" d="M437.6 282.3c0 1.7-.3 3.3-1 4.6s-1.6 2.4-2.8 3.3c-1.2.9-2.5 1.5-3.9 1.9s-2.9.6-4.5.6h-3.7v10.1c0 .5.1 1 .3 1.4.2.4.6.7 1.1 1 .3.1.8.2 1.5.3s1.4.1 2 .2v1.7h-14.3v-1.7c.4 0 .9-.1 1.6-.2s1.2-.2 1.5-.3c.5-.2.8-.5 1-.9s.3-.9.3-1.5v-24c0-.5-.1-1-.2-1.5-.2-.4-.5-.8-1.1-1s-1.2-.3-1.8-.4c-.6-.1-1.1-.1-1.5-.2V274h15.2c3.1 0 5.6.7 7.5 2.2 1.9 1.6 2.8 3.6 2.8 6.1zm-7.1 5.7c.5-.8.9-1.5 1.1-2.3s.3-1.5.3-2.2c0-.9-.1-1.8-.3-2.7-.2-.9-.6-1.7-1.1-2.4-.5-.7-1.3-1.3-2.2-1.7s-2-.6-3.3-.6h-3.3v14.7h2.4c1.7 0 3.1-.3 4.1-.8 1-.6 1.8-1.2 2.3-2z" class="st0"/><path id="path34" d="M483.3 307.4h-9c-2-3.1-3.8-5.8-5.4-8.1-1.6-2.3-3.3-4.6-5.2-7h-3.4v10.6c0 .5.1 1 .3 1.4s.5.7 1.1 1c.3.1.8.2 1.5.3s1.3.1 1.8.2v1.7h-14.1v-1.7c.4 0 .9-.1 1.6-.2s1.2-.2 1.5-.3c.5-.2.8-.5 1-.9s.3-.9.3-1.5v-24.1c0-.5-.1-1-.2-1.5-.2-.4-.5-.7-1.1-1-.4-.1-.9-.3-1.5-.4s-1.2-.2-1.6-.2V274h15.4c1.4 0 2.7.1 4 .4 1.2.3 2.4.8 3.4 1.4s1.7 1.4 2.3 2.5c.6 1 .9 2.2.9 3.6 0 1.3-.2 2.4-.6 3.4s-1 1.8-1.7 2.6c-.7.7-1.5 1.3-2.5 1.7-1 .5-2.1.9-3.3 1.3 1.6 2.2 3 4 4.1 5.5s2.4 3.3 4 5.4c.7.9 1.3 1.6 1.9 2.1.6.4 1.1.8 1.7 1.1.4.2.9.4 1.5.5s1.1.2 1.5.2v1.7h-.2zM471 282.6c0-2-.6-3.6-1.7-4.8-1.2-1.2-2.8-1.8-4.9-1.8h-4v14.3h3.1c2.2 0 4-.7 5.4-2.1s2.1-3.3 2.1-5.6z" class="st0"/><path id="path36" d="M522 297.6l-.6 9.8h-27.6v-1.7c.5 0 1.1-.1 1.9-.2s1.3-.2 1.5-.3c.5-.2.8-.5 1-.9s.3-.9.3-1.4V279c0-.5-.1-1-.3-1.4-.2-.4-.5-.7-1.1-1-.4-.2-1-.4-1.7-.5s-1.3-.3-1.7-.3v-1.7h25.8v8h-1.8c-.3-1.2-1-2.5-2-3.8s-2-2.1-3-2.2c-.5-.1-1.1-.1-1.7-.1h-7.5v13.2h3.8c1.2 0 2.1-.1 2.6-.3.6-.2 1-.6 1.5-1.1.3-.5.6-1.1.9-1.8.2-.8.4-1.5.5-2.1h1.8v13h-1.8c-.1-.8-.2-1.5-.5-2.4s-.6-1.4-.9-1.8c-.5-.6-1-1-1.7-1.2-.6-.2-1.4-.3-2.5-.3h-3.8v10c0 1 .1 1.8.2 2.4s.4 1 .8 1.3 1 .5 1.7.6 1.7.1 3 .1h2s1.6 0 2.1-.1l1.8-.3s1.1-.4 1.3-.7c.7-.8 1.5-1.9 2.3-3.4s1.3-2.6 1.5-3.4h1.9v-.1z" class="st0"/><path id="path38" d="M548.5 296.5h-14v-3.7h14v3.7z" class="st0"/><path id="path40" d="M589 297.5l-.7 9.9h-26v-1.7c.4 0 .9-.1 1.6-.2.7-.1 1.2-.2 1.5-.3.5-.2.8-.5 1-.9s.3-.9.3-1.5V279c0-.5-.1-1-.3-1.4s-.5-.7-1.1-1c-.4-.2-.9-.4-1.5-.6s-1.2-.3-1.6-.3V274h14.1v1.7c-.4 0-1 .1-1.7.2s-1.2.3-1.5.4c-.5.2-.9.5-1.1 1-.2.5-.3.9-.3 1.5v22.4c0 1 .1 1.8.2 2.4.1.6.3 1 .7 1.3s.9.5 1.6.6c.7.1 1.7.1 3 .1h1.8s1.2-.1 1.8-.2c.5-.1 1.1-.2 1.5-.4s.8-.4 1-.6c.6-.7 1.4-1.8 2.2-3.3.9-1.5 1.4-2.6 1.8-3.6h1.7z" class="st0"/><path id="path42" d="M627.6 278c1.5 1.5 2.6 3.4 3.4 5.5.8 2.2 1.2 4.6 1.2 7.2s-.4 5-1.3 7.2c-.8 2.2-2 4-3.5 5.5s-3.1 2.7-5.1 3.5-4 1.2-6.1 1.2c-2.3 0-4.5-.4-6.4-1.3-2-.9-3.6-2.1-5.1-3.6-1.4-1.5-2.5-3.4-3.3-5.5s-1.2-4.5-1.2-7c0-2.7.4-5.1 1.3-7.2.8-2.1 2-4 3.5-5.5s3.2-2.7 5.1-3.5 4-1.2 6.1-1.2c2.2 0 4.3.4 6.2 1.2 2 .9 3.7 2 5.2 3.5zm-3.5 23.6c.9-1.4 1.5-3 1.9-4.8s.6-3.8.6-6c0-2.3-.2-4.4-.7-6.3s-1.1-3.5-2-4.9c-.9-1.3-1.9-2.4-3.2-3.1s-2.8-1.1-4.5-1.1c-1.9 0-3.5.4-4.8 1.3s-2.4 2-3.2 3.4-1.4 3-1.7 4.8c-.4 1.8-.6 3.8-.6 5.8 0 2.3.2 4.3.6 6.1s1 3.4 1.9 4.8c.8 1.4 1.9 2.5 3.2 3.2s2.8 1.2 4.6 1.2c1.7 0 3.2-.4 4.5-1.2 1.4-.7 2.5-1.8 3.4-3.2z" class="st0"/><path id="path44" d="M676.6 275.8c-.4 0-.9.1-1.5.3-.6.2-1.1.4-1.4.6-.5.3-1 .8-1.3 1.3s-.6 1.1-1 1.8c-1 2.5-2.6 6.4-4.7 11.6-2.1 5.3-4.3 10.8-6.5 16.5h-1.9c-2.3-6.1-4.4-11.9-6.5-17.5s-3.5-9.4-4.3-11.4c-.2-.5-.4-.9-.8-1.3s-.7-.7-1.2-1c-.4-.3-.9-.5-1.4-.6s-1-.2-1.4-.2v-1.7h13.8v1.7c-1.2.1-2.2.2-3 .4-.8.2-1.2.5-1.2.9 0 .2 0 .4.1.6s.1.4.2.6c.6 1.5 1.5 4 2.8 7.5s3.1 8.4 5.5 14.8c1.2-2.9 2.6-6.3 4.1-10.3 1.5-3.9 2.6-6.7 3.1-8.1s.8-2.4.9-3c.1-.5.1-1 .1-1.3 0-.4-.2-.7-.5-.9-.3-.2-.7-.5-1.3-.6-.5-.2-1-.3-1.6-.4-.5-.1-1.1-.1-1.6-.2v-1.7h12.4v1.6h.1z" class="st0"/><path id="path46" d="M715.3 297.6l-.6 9.8H687v-1.7c.5 0 1.1-.1 1.9-.2.8-.1 1.3-.2 1.5-.3.5-.2.8-.5 1-.9s.3-.9.3-1.4V279c0-.5-.1-1-.3-1.4s-.5-.7-1.1-1c-.4-.2-1-.4-1.7-.5s-1.3-.3-1.7-.3v-1.7h25.8v8H711c-.3-1.2-1-2.5-2-3.8s-2-2.1-3-2.2c-.5-.1-1.1-.1-1.7-.1h-7.5v13.2h3.8c1.2 0 2.1-.1 2.6-.3s1-.6 1.5-1.1c.3-.5.6-1.1.9-1.8.2-.8.4-1.5.5-2.1h1.8v13H706c-.1-.8-.2-1.5-.5-2.4s-.6-1.4-.9-1.8c-.5-.6-1-1-1.7-1.2-.6-.2-1.4-.3-2.5-.3h-3.8v10c0 1 .1 1.8.2 2.4.1.6.4 1 .8 1.3.4.3 1 .5 1.7.6s1.7.1 3 .1h2s1.6 0 2.1-.1l1.8-.3s1.1-.4 1.3-.7c.7-.8 1.5-1.9 2.3-3.4s1.3-2.6 1.5-3.4h2v-.1z" class="st0"/><path id="path48" d="M760 290.9c0 2.8-.5 5.3-1.6 7.4s-2.4 3.8-4.2 5.1c-1.7 1.3-3.7 2.3-5.8 3s-4.4 1-6.6 1H728v-1.7c.5 0 1 0 1.8-.1s1.2-.2 1.4-.3c.5-.2.8-.5 1-.9s.3-.9.3-1.4v-24c0-.5-.1-1-.3-1.4s-.5-.8-1.1-1c-.5-.2-1-.4-1.6-.5s-1-.2-1.5-.2v-1.7h14.5c2 0 4 .3 5.9.9s3.6 1.5 5.1 2.5c2 1.4 3.5 3.2 4.6 5.5 1.4 2.1 1.9 4.8 1.9 7.8zm-5.7 0c0-2.2-.3-4.3-.9-6.1-.6-1.8-1.5-3.4-2.6-4.7-1.1-1.3-2.4-2.3-4-3s-3.3-1.1-5.2-1.1h-2.2s-1.4 0-1.8.1v25.6c0 1.4.4 2.4 1.2 3 .8.5 2.1.8 3.8.8 2 0 3.7-.4 5.2-1.1s2.7-1.7 3.6-2.9c1-1.3 1.7-2.8 2.1-4.6s.8-3.7.8-6z" class="st0"/><path id="path50" d="M826.4 290.9c0 2.8-.5 5.3-1.6 7.4s-2.4 3.8-4.2 5.1c-1.7 1.3-3.7 2.3-5.8 3s-4.4 1-6.6 1h-13.8v-1.7c.5 0 1 0 1.8-.1s1.2-.2 1.4-.3c.5-.2.8-.5 1-.9s.3-.9.3-1.4v-24c0-.5-.1-1-.3-1.4s-.5-.8-1.1-1c-.5-.2-1-.4-1.6-.5s-1-.2-1.5-.2v-1.7h14.5c2 0 4 .3 5.9.9s3.6 1.5 5.1 2.5c2 1.4 3.5 3.2 4.6 5.5 1.4 2.1 1.9 4.8 1.9 7.8zm-5.7 0c0-2.2-.3-4.3-.9-6.1-.6-1.8-1.5-3.4-2.6-4.7-1.1-1.3-2.4-2.3-4-3s-3.3-1.1-5.2-1.1h-2.2s-1.4 0-1.8.1v25.6c0 1.4.4 2.4 1.2 3s2.1.8 3.8.8c2 0 3.7-.4 5.2-1.1s2.7-1.7 3.6-2.9c1-1.3 1.7-2.8 2.1-4.6.6-1.7.8-3.7.8-6z" class="st0"/><path id="path52" d="M868 297.6l-.6 9.8h-27.6v-1.7c.5 0 1.1-.1 1.9-.2.8-.1 1.3-.2 1.5-.3.5-.2.8-.5 1-.9s.3-.9.3-1.4V279c0-.5-.1-1-.3-1.4s-.5-.7-1.1-1c-.4-.2-1-.4-1.7-.5-.7-.2-1.3-.3-1.7-.3v-1.7h25.8v8h-1.8c-.3-1.2-1-2.5-2-3.8s-2-2.1-3-2.2c-.5-.1-1.1-.1-1.7-.1h-7.5v13.2h3.8c1.2 0 2.1-.1 2.6-.3s1-.6 1.5-1.1c.3-.5.6-1.1.9-1.8.2-.8.4-1.5.5-2.1h1.8v13h-1.8c-.1-.8-.2-1.5-.5-2.4s-.6-1.4-.9-1.8c-.5-.6-1-1-1.7-1.2-.6-.2-1.4-.3-2.5-.3h-3.8v10c0 1 .1 1.8.2 2.4.1.6.4 1 .8 1.3.4.3 1 .5 1.7.6s1.7.1 3 .1h2s1.6 0 2.1-.1l1.8-.3s1.1-.4 1.3-.7c.7-.8 1.5-1.9 2.3-3.4s1.3-2.6 1.5-3.4h1.9v-.1z" class="st0"/><path id="path54" d="M901.5 292.1c.7.8 1.2 1.6 1.6 2.6s.5 2 .5 3.3c0 2.9-1.1 5.4-3.3 7.3s-4.9 2.9-8.1 2.9c-1.5 0-3-.2-4.5-.7s-2.8-1-3.8-1.7l-1 1.7H881l-.3-11.4h1.9c.4 1.4.8 2.7 1.4 3.8.5 1.1 1.2 2.2 2.1 3.2.8.9 1.8 1.7 2.9 2.2s2.4.8 3.8.8c1.1 0 2-.1 2.8-.4s1.5-.7 2-1.2.9-1.1 1.1-1.8c.2-.7.4-1.5.4-2.4 0-1.3-.4-2.6-1.1-3.7-.8-1.2-1.9-2-3.4-2.6-1-.4-2.2-.9-3.5-1.3-1.3-.5-2.4-1-3.4-1.4-1.9-.8-3.3-2-4.4-3.3-1-1.4-1.6-3.2-1.6-5.4 0-1.3.3-2.4.8-3.5s1.3-2.1 2.2-2.9 2-1.5 3.2-1.9c1.2-.5 2.5-.7 3.9-.7 1.5 0 2.9.2 4.1.7 1.2.5 2.3 1 3.3 1.6l1-1.6h1.9l.2 11.1h-1.9c-.3-1.3-.7-2.5-1.2-3.6-.4-1.2-1-2.2-1.7-3.1s-1.5-1.6-2.5-2.2c-1-.5-2.2-.8-3.6-.8-1.5 0-2.8.5-3.8 1.4s-1.6 2.1-1.6 3.5.3 2.6 1 3.6c.7.9 1.7 1.7 2.9 2.3 1.1.5 2.3 1 3.4 1.4 1.1.4 2.2.8 3.2 1.3.9.4 1.8.9 2.7 1.4s1.7.8 2.3 1.5z" class="st0"/><path id="path56" d="M931.7 307.4h-15v-1.7c.4 0 1-.1 1.8-.1.8-.1 1.4-.2 1.7-.3.5-.2.9-.5 1.1-.8.2-.4.4-.8.4-1.5v-24.1c0-.5-.1-1-.3-1.4s-.6-.7-1.2-.9c-.5-.2-1.1-.4-1.8-.5-.7-.2-1.3-.3-1.7-.3v-1.7h15v1.7c-.5 0-1.1.1-1.7.2-.7.1-1.3.2-1.8.4-.6.2-1 .5-1.2.9s-.3.9-.3 1.4v24.1c0 .5.1 1 .3 1.4s.6.7 1.2 1c.3.1.9.3 1.6.4.7.1 1.4.2 1.9.2v1.6z" class="st0"/><path id="path58" d="M977.5 294.1c-.4 0-.9.1-1.5.2s-1.1.2-1.5.4c-.5.2-.8.6-1 1s-.3.9-.3 1.5v6.4c0 .7.1 1.2.1 1.6-2.1.9-4.2 1.7-6.2 2.2-2.1.5-4.1.8-6.1.8-2.1 0-4.2-.4-6.1-1.2-2-.8-3.7-1.9-5.2-3.4s-2.7-3.3-3.5-5.4c-.9-2.1-1.3-4.5-1.3-7.1 0-2.5.4-4.9 1.3-7.1.8-2.2 2-4.1 3.6-5.6 1.5-1.6 3.3-2.8 5.3-3.7 2.1-.9 4.3-1.3 6.6-1.3 1.9 0 3.5.2 4.9.7s2.6 1 3.7 1.6l1-1.6h1.9l.2 11.6h-1.9c-.3-1.3-.7-2.5-1.2-3.8-.5-1.2-1.1-2.4-1.9-3.3-.8-1-1.7-1.8-2.8-2.4s-2.4-.9-4-.9c-1.7 0-3.2.3-4.5 1s-2.5 1.7-3.4 3c-1 1.3-1.7 2.9-2.2 4.9-.5 1.9-.8 4.1-.8 6.5 0 2.1.3 4.1.8 6s1.2 3.5 2.2 4.9 2.2 2.5 3.6 3.3c1.5.8 3.1 1.2 5 1.2 1.4 0 2.6-.2 3.8-.6 1.1-.4 1.9-.9 2.4-1.3.1-.8.2-1.6.2-2.5V297.8c0-.7-.1-1.2-.3-1.7s-.6-.9-1.1-1.1-1.2-.4-2.1-.5-1.6-.2-2.1-.2v-1.7h14.6v1.5h-.2z" class="st0"/><path id="path60" d="M1023.7 275.8c-.4 0-1.1.1-2 .4-.9.2-1.6.5-1.9.7-.6.4-.9 1.1-1.1 2.3-.2 1.1-.3 2.5-.3 4.2v24.4h-2l-20.2-27.2v17.2c0 1.9.1 3.4.4 4.4.2 1 .6 1.8 1.1 2.2.4.3 1.1.7 2.2 1s1.9.5 2.2.5v1.7h-13.7v-1.7c.4 0 1.1-.2 2.1-.5s1.6-.5 1.9-.7c.5-.4.9-1.1 1.1-2 .2-.9.3-2.4.3-4.6v-16.4c0-.7-.1-1.4-.4-2.2-.2-.7-.6-1.3-1-1.7-.6-.5-1.3-1-2.3-1.3s-1.7-.6-2.3-.6v-1.7h9.5l18.7 25.4v-15.8c0-1.9-.1-3.4-.4-4.5s-.6-1.7-1.1-2.1c-.4-.3-1.2-.6-2.1-.9-1-.3-1.7-.4-2.3-.5v-1.7h13.5l.1 1.7z" class="st0"/><path id="path62" d="M1063.9 297.6l-.6 9.8h-27.6v-1.7c.5 0 1.1-.1 1.9-.2s1.3-.2 1.5-.3c.5-.2.8-.5 1-.9s.3-.9.3-1.4V279c0-.5-.1-1-.3-1.4-.2-.4-.5-.7-1.1-1-.4-.2-1-.4-1.7-.5-.7-.2-1.3-.3-1.7-.3v-1.7h25.8v8h-1.8c-.3-1.2-1-2.5-2-3.8s-2-2.1-3-2.2c-.5-.1-1.1-.1-1.7-.1h-7.5v13.2h3.8c1.2 0 2.1-.1 2.6-.3.6-.2 1-.6 1.5-1.1.3-.5.6-1.1.9-1.8.2-.8.4-1.5.5-2.1h1.8v13h-1.8c-.1-.8-.2-1.5-.5-2.4-.3-.8-.6-1.4-.9-1.8-.5-.6-1-1-1.7-1.2-.6-.2-1.4-.3-2.5-.3h-3.8v10c0 1 .1 1.8.2 2.4s.4 1 .8 1.3 1 .5 1.7.6 1.7.1 3 .1h2s1.6 0 2.1-.1l1.8-.3c.6-.2 1.1-.4 1.3-.7.7-.8 1.5-1.9 2.3-3.4s1.3-2.6 1.5-3.4h1.9v-.1z" class="st0"/><path id="path64" d="M1109.1 307.4h-9c-2-3.1-3.8-5.8-5.4-8.1-1.6-2.3-3.3-4.6-5.2-7h-3.4v10.6c0 .5.1 1 .3 1.4s.5.7 1.1 1c.3.1.8.2 1.5.3.7.1 1.3.1 1.8.2v1.7h-14.1v-1.7c.4 0 .9-.1 1.6-.2s1.2-.2 1.5-.3c.5-.2.8-.5 1-.9s.3-.9.3-1.5v-24.1c0-.5-.1-1-.2-1.5-.2-.4-.5-.7-1.1-1-.4-.1-.9-.3-1.5-.4s-1.2-.2-1.6-.2V274h15.4c1.4 0 2.7.1 4 .4 1.2.3 2.4.8 3.4 1.4s1.7 1.4 2.3 2.5c.6 1 .9 2.2.9 3.6 0 1.3-.2 2.4-.6 3.4s-1 1.8-1.7 2.6c-.7.7-1.5 1.3-2.5 1.7-1 .5-2.1.9-3.3 1.3 1.6 2.2 3 4 4.1 5.5s2.4 3.3 4 5.4c.7.9 1.3 1.6 1.9 2.1.6.4 1.1.8 1.7 1.1.4.2.9.4 1.5.5s1.1.2 1.5.2v1.7h-.2zm-12.3-24.8c0-2-.6-3.6-1.7-4.8-1.2-1.2-2.8-1.8-4.9-1.8h-4v14.3h3.1c2.2 0 4-.7 5.4-2.1 1.4-1.4 2.1-3.3 2.1-5.6z" class="st0"/><path id="path66" d="M1166.7 282.4h-1.8c-.3-1.2-1-2.6-2.1-4-1-1.4-2-2.2-3-2.3-.5-.1-1.1-.1-1.7-.1H1150.2v13.4h3.8c1.2 0 2.1-.1 2.7-.4.6-.2 1.2-.6 1.6-1.1.3-.3.6-.9.9-1.6s.4-1.5.5-2.3h1.8v13h-1.8c0-.7-.2-1.5-.5-2.3-.3-.9-.6-1.5-.9-1.9-.5-.6-1.1-1-1.8-1.2-.7-.2-1.6-.3-2.6-.3h-3.8v11.5c0 .5.1 1 .3 1.4.2.4.6.7 1.1 1 .2.1.7.2 1.5.4s1.4.2 1.8.3v1.7h-14.4v-1.7c.5 0 1.1-.1 1.9-.2s1.3-.2 1.5-.3c.5-.2.8-.5 1-.9s.3-.9.3-1.4v-24c0-.5-.1-1-.3-1.4-.2-.4-.5-.7-1.1-1-.4-.2-1-.4-1.7-.5s-1.3-.3-1.7-.3v-1.7h26.1v8.2h.3z" class="st0"/><path id="path68" d="M1210.1 307.4h-13.8v-1.7c1.2-.1 2.2-.2 3-.5.8-.2 1.2-.5 1.2-.9v-.5s-.1-.4-.1-.5l-2.8-7.5h-11.7c-.4 1.1-.8 2-1.1 2.9-.3.8-.5 1.6-.7 2.3-.2.7-.3 1.2-.4 1.6s-.1.8-.1 1c0 .6.5 1.1 1.5 1.5 1 .3 2.1.5 3.3.6v1.7h-12.5v-1.7c.4 0 .9-.1 1.5-.3.6-.1 1.1-.3 1.5-.6.6-.4 1.1-.9 1.5-1.3s.7-1.1 1-1.9c1.7-4.2 3.5-8.9 5.5-14.1s3.8-9.8 5.4-13.9h1.9l11.1 28.7c.2.6.5 1.1.8 1.5s.7.7 1.2 1.1c.4.2.8.4 1.4.6.6.1 1.1.2 1.5.2v1.7h-.1zm-13.4-13.6l-5-12.9-5 12.9h10z" class="st0"/><path id="path70" d="M1241.4 292.1c.7.8 1.2 1.6 1.6 2.6s.5 2 .5 3.3c0 2.9-1.1 5.4-3.3 7.3-2.2 1.9-4.9 2.9-8.1 2.9-1.5 0-3-.2-4.5-.7s-2.8-1-3.8-1.7l-1 1.7h-1.9l-.3-11.4h1.9c.4 1.4.8 2.7 1.4 3.8s1.2 2.2 2.1 3.2c.8.9 1.8 1.7 2.9 2.2s2.4.8 3.8.8c1.1 0 2-.1 2.8-.4s1.5-.7 2-1.2.9-1.1 1.1-1.8c.2-.7.4-1.5.4-2.4 0-1.3-.4-2.6-1.1-3.7-.8-1.2-1.9-2-3.4-2.6-1-.4-2.2-.9-3.5-1.3-1.3-.5-2.4-1-3.4-1.4-1.9-.8-3.3-2-4.4-3.3s-1.6-3.2-1.6-5.4c0-1.3.3-2.4.8-3.5s1.3-2.1 2.2-2.9c.9-.8 2-1.5 3.2-1.9 1.2-.5 2.5-.7 3.9-.7 1.5 0 2.9.2 4.1.7s2.3 1 3.3 1.6l1-1.6h1.9l.2 11.1h-1.9c-.3-1.3-.7-2.5-1.2-3.6s-1-2.2-1.7-3.1-1.5-1.6-2.5-2.2c-1-.5-2.2-.8-3.6-.8-1.5 0-2.8.5-3.8 1.4-1 1-1.6 2.1-1.6 3.5s.3 2.6 1 3.6c.7.9 1.6 1.7 2.9 2.3 1.1.5 2.3 1 3.4 1.4s2.2.8 3.2 1.3c.9.4 1.8.9 2.7 1.4s1.7.8 2.3 1.5z" class="st0"/><path id="path72" d="M1291.6 307.4h-13.8v-1.7c.4 0 .9-.1 1.6-.1.7-.1 1.2-.2 1.5-.3.5-.2.8-.5 1-.9s.3-.9.3-1.5V291h-15.7v11.6c0 .5.1 1 .3 1.4.2.4.5.7 1.1 1 .3.1.7.3 1.4.4s1.2.2 1.6.2v1.7h-13.8v-1.7c.4 0 .9-.1 1.6-.1.7-.1 1.2-.2 1.5-.3.5-.2.8-.5 1-.9s.3-.9.3-1.5v-24c0-.5-.1-1-.3-1.4-.2-.4-.6-.7-1.1-1-.4-.2-.9-.4-1.5-.5-.6-.2-1.1-.3-1.6-.3v-1.7h13.8v1.7c-.4 0-1 .1-1.6.2s-1.1.2-1.4.4c-.5.2-.9.5-1.1.9s-.3.9-.3 1.4V289h15.7v-10.1c0-.5-.1-1-.3-1.4-.2-.4-.6-.7-1.1-1-.4-.2-.9-.4-1.5-.5s-1.1-.3-1.6-.3V274h13.8v1.7c-.4 0-1 .1-1.6.2s-1.1.2-1.4.4c-.5.2-.9.5-1.1.9s-.3.9-.3 1.4v24c0 .5.1 1 .3 1.4.2.4.5.7 1.1 1 .3.1.7.3 1.4.4s1.2.2 1.6.2v1.8h.2z" class="st0"/><path id="path74" d="M1320.2 307.4h-15v-1.7c.4 0 1-.1 1.8-.1.8-.1 1.4-.2 1.7-.3.5-.2.9-.5 1.1-.8.2-.4.4-.8.4-1.5v-24.1c0-.5-.1-1-.3-1.4-.2-.4-.6-.7-1.2-.9-.5-.2-1.1-.4-1.8-.5-.7-.2-1.3-.3-1.7-.3v-1.7h15v1.7c-.5 0-1.1.1-1.7.2-.7.1-1.3.2-1.8.4-.6.2-1 .5-1.2.9s-.3.9-.3 1.4v24.1c0 .5.1 1 .3 1.4.2.4.6.7 1.2 1 .3.1.9.3 1.6.4s1.4.2 1.9.2v1.6z" class="st0"/><path id="path76" d="M1360.7 278c1.5 1.5 2.6 3.4 3.4 5.5s1.2 4.6 1.2 7.2-.4 5-1.3 7.2c-.8 2.2-2 4-3.5 5.5s-3.1 2.7-5.1 3.5-4 1.2-6.1 1.2c-2.3 0-4.5-.4-6.4-1.3-2-.9-3.6-2.1-5.1-3.6-1.4-1.5-2.5-3.4-3.3-5.5-.8-2.2-1.2-4.5-1.2-7 0-2.7.4-5.1 1.3-7.2s2-4 3.5-5.5 3.2-2.7 5.1-3.5 4-1.2 6.1-1.2c2.2 0 4.3.4 6.2 1.2 2.1.9 3.8 2 5.2 3.5zm-3.5 23.6c.9-1.4 1.5-3 1.9-4.8s.6-3.8.6-6c0-2.3-.2-4.4-.7-6.3-.4-1.9-1.1-3.5-2-4.9-.9-1.3-1.9-2.4-3.2-3.1s-2.8-1.1-4.5-1.1c-1.9 0-3.5.4-4.8 1.3s-2.4 2-3.2 3.4c-.8 1.4-1.4 3-1.7 4.8-.4 1.8-.6 3.8-.6 5.8 0 2.3.2 4.3.6 6.1s1 3.4 1.9 4.8c.8 1.4 1.9 2.5 3.2 3.2 1.3.8 2.8 1.2 4.6 1.2 1.7 0 3.2-.4 4.5-1.2 1.5-.7 2.6-1.8 3.4-3.2z" class="st0"/><path id="path78" d="M1413.2 275.8c-.4 0-1.1.1-2 .4s-1.6.5-1.9.7c-.6.4-.9 1.1-1.1 2.3-.2 1.1-.3 2.5-.3 4.2v24.4h-2l-20.2-27.2v17.2c0 1.9.1 3.4.4 4.4.2 1 .6 1.8 1.1 2.2.4.3 1.1.7 2.2 1s1.9.5 2.2.5v1.7h-13.7v-1.7c.4 0 1.1-.2 2.1-.5s1.6-.5 1.9-.7c.5-.4.9-1.1 1.1-2s.3-2.4.3-4.6v-16.4c0-.7-.1-1.4-.4-2.2-.3-.7-.6-1.3-1-1.7-.6-.5-1.3-1-2.3-1.3s-1.7-.6-2.3-.6v-1.7h9.5l18.7 25.4v-15.8c0-1.9-.1-3.4-.4-4.5s-.6-1.7-1.1-2.1c-.4-.3-1.2-.6-2.1-.9-1-.3-1.7-.4-2.3-.5v-1.7h13.5v1.7h.1z" class="st0"/></g><g id="g90"><path id="path82" d="M27.7 253.6c-.3 0-.6 0-.9-.2s-.6-.3-.8-.5c-.2-.2-.4-.5-.5-.8s-.2-.6-.2-.9c0-.6.3-1.3.7-1.7.2-.2.5-.4.8-.5.6-.2 1.2-.2 1.9 0 .3.1.6.3.8.5.5.4.7 1.1.7 1.7 0 .3-.1.6-.2.9-.1.3-.3.6-.5.8-.6.5-1.2.7-1.8.7z" class="st0"/><path id="path84" d="M49.6 251.2c0-1.3 1.1-2.4 2.4-2.4 1.3 0 2.4 1.1 2.4 2.4 0 1.3-1.1 2.4-2.4 2.4-1.3 0-2.4-1-2.4-2.4zm-12.1 0c0-1.3 1.1-2.4 2.4-2.4 1.3 0 2.4 1.1 2.4 2.4 0 1.3-1.1 2.4-2.4 2.4-1.3 0-2.4-1-2.4-2.4z" class="st0"/><path id="path86" d="M1400 251.2c0-1.3 1.1-2.4 2.4-2.4 1.3 0 2.4 1.1 2.4 2.4 0 1.3-1.1 2.4-2.4 2.4-1.3 0-2.4-1-2.4-2.4zm-12.1 0c0-1.3 1.1-2.4 2.4-2.4 1.3 0 2.4 1.1 2.4 2.4 0 1.3-1.1 2.4-2.4 2.4-1.4 0-2.4-1-2.4-2.4zm-12.2 0c0-1.3 1.1-2.4 2.4-2.4 1.3 0 2.4 1.1 2.4 2.4 0 1.3-1.1 2.4-2.4 2.4-1.3 0-2.4-1-2.4-2.4zm-12.2 0c0-1.3 1.1-2.4 2.4-2.4 1.3 0 2.4 1.1 2.4 2.4 0 1.3-1.1 2.4-2.4 2.4-1.3 0-2.4-1-2.4-2.4zm-12.2 0c0-1.3 1.1-2.4 2.4-2.4 1.3 0 2.4 1.1 2.4 2.4 0 1.3-1.1 2.4-2.4 2.4-1.3 0-2.4-1-2.4-2.4zm-12.1 0c0-1.3 1.1-2.4 2.4-2.4 1.3 0 2.4 1.1 2.4 2.4 0 1.3-1.1 2.4-2.4 2.4-1.3 0-2.4-1-2.4-2.4zm-12.2 0c0-1.3 1.1-2.4 2.4-2.4 1.3 0 2.4 1.1 2.4 2.4 0 1.3-1.1 2.4-2.4 2.4-1.3 0-2.4-1-2.4-2.4zm-12.1 0c0-1.3 1.1-2.4 2.4-2.4 1.3 0 2.4 1.1 2.4 2.4 0 1.3-1.1 2.4-2.4 2.4-1.4 0-2.4-1-2.4-2.4zm-12.2 0c0-1.3 1.1-2.4 2.4-2.4 1.3 0 2.4 1.1 2.4 2.4 0 1.3-1.1 2.4-2.4 2.4-1.3 0-2.4-1-2.4-2.4zm-12.2 0c0-1.3 1.1-2.4 2.4-2.4 1.3 0 2.4 1.1 2.4 2.4 0 1.3-1.1 2.4-2.4 2.4-1.3 0-2.4-1-2.4-2.4zm-12.1 0c0-1.3 1.1-2.4 2.4-2.4 1.3 0 2.4 1.1 2.4 2.4 0 1.3-1.1 2.4-2.4 2.4-1.3 0-2.4-1-2.4-2.4zm-12.2 0c0-1.3 1.1-2.4 2.4-2.4 1.3 0 2.4 1.1 2.4 2.4 0 1.3-1.1 2.4-2.4 2.4-1.3 0-2.4-1-2.4-2.4zm-12.2 0c0-1.3 1.1-2.4 2.4-2.4 1.3 0 2.4 1.1 2.4 2.4 0 1.3-1.1 2.4-2.4 2.4-1.3 0-2.4-1-2.4-2.4zm-12.1 0c0-1.3 1.1-2.4 2.4-2.4 1.3 0 2.4 1.1 2.4 2.4 0 1.3-1.1 2.4-2.4 2.4-1.4 0-2.4-1-2.4-2.4zm-12.2 0c0-1.3 1.1-2.4 2.4-2.4 1.3 0 2.4 1.1 2.4 2.4 0 1.3-1.1 2.4-2.4 2.4-1.3 0-2.4-1-2.4-2.4zm-12.2 0c0-1.3 1.1-2.4 2.4-2.4 1.3 0 2.4 1.1 2.4 2.4 0 1.3-1.1 2.4-2.4 2.4-1.3 0-2.4-1-2.4-2.4zm-12.1 0c0-1.3 1.1-2.4 2.4-2.4 1.3 0 2.4 1.1 2.4 2.4 0 1.3-1.1 2.4-2.4 2.4-1.4 0-2.4-1-2.4-2.4zm-12.2 0c0-1.3 1.1-2.4 2.4-2.4 1.3 0 2.4 1.1 2.4 2.4 0 1.3-1.1 2.4-2.4 2.4-1.3 0-2.4-1-2.4-2.4zm-12.2 0c0-1.3 1.1-2.4 2.4-2.4 1.3 0 2.4 1.1 2.4 2.4 0 1.3-1.1 2.4-2.4 2.4-1.3 0-2.4-1-2.4-2.4zm-12.1 0c0-1.3 1.1-2.4 2.4-2.4 1.3 0 2.4 1.1 2.4 2.4 0 1.3-1.1 2.4-2.4 2.4-1.4 0-2.4-1-2.4-2.4zm-12.2 0c0-1.3 1.1-2.4 2.4-2.4 1.3 0 2.4 1.1 2.4 2.4 0 1.3-1.1 2.4-2.4 2.4-1.3 0-2.4-1-2.4-2.4zm-12.2 0c0-1.3 1.1-2.4 2.4-2.4 1.3 0 2.4 1.1 2.4 2.4 0 1.3-1.1 2.4-2.4 2.4-1.3 0-2.4-1-2.4-2.4zm-12.1 0c0-1.3 1.1-2.4 2.4-2.4 1.3 0 2.4 1.1 2.4 2.4 0 1.3-1.1 2.4-2.4 2.4-1.4 0-2.4-1-2.4-2.4zm-12.2 0c0-1.3 1.1-2.4 2.4-2.4 1.3 0 2.4 1.1 2.4 2.4 0 1.3-1.1 2.4-2.4 2.4-1.3 0-2.4-1-2.4-2.4zm-12.2 0c0-1.3 1.1-2.4 2.4-2.4 1.3 0 2.4 1.1 2.4 2.4 0 1.3-1.1 2.4-2.4 2.4-1.3 0-2.4-1-2.4-2.4zm-12.1 0c0-1.3 1.1-2.4 2.4-2.4 1.3 0 2.4 1.1 2.4 2.4 0 1.3-1.1 2.4-2.4 2.4-1.3 0-2.4-1-2.4-2.4zm-12.2 0c0-1.3 1.1-2.4 2.4-2.4 1.3 0 2.4 1.1 2.4 2.4 0 1.3-1.1 2.4-2.4 2.4-1.3 0-2.4-1-2.4-2.4zm-12.2 0c0-1.3 1.1-2.4 2.4-2.4 1.3 0 2.4 1.1 2.4 2.4 0 1.3-1.1 2.4-2.4 2.4-1.3 0-2.4-1-2.4-2.4zm-12.1 0c0-1.3 1.1-2.4 2.4-2.4 1.3 0 2.4 1.1 2.4 2.4 0 1.3-1.1 2.4-2.4 2.4-1.3 0-2.4-1-2.4-2.4zm-12.2 0c0-1.3 1.1-2.4 2.4-2.4 1.3 0 2.4 1.1 2.4 2.4 0 1.3-1.1 2.4-2.4 2.4-1.3 0-2.4-1-2.4-2.4zm-12.1 0c0-1.3 1.1-2.4 2.4-2.4 1.3 0 2.4 1.1 2.4 2.4 0 1.3-1.1 2.4-2.4 2.4-1.4 0-2.4-1-2.4-2.4zm-12.2 0c0-1.3 1.1-2.4 2.4-2.4 1.3 0 2.4 1.1 2.4 2.4 0 1.3-1.1 2.4-2.4 2.4-1.3 0-2.4-1-2.4-2.4zm-12.2 0c0-1.3 1.1-2.4 2.4-2.4 1.3 0 2.4 1.1 2.4 2.4 0 1.3-1.1 2.4-2.4 2.4-1.3 0-2.4-1-2.4-2.4zm-12.1 0c0-1.3 1.1-2.4 2.4-2.4 1.3 0 2.4 1.1 2.4 2.4 0 1.3-1.1 2.4-2.4 2.4-1.4 0-2.4-1-2.4-2.4zm-12.2 0c0-1.3 1.1-2.4 2.4-2.4 1.3 0 2.4 1.1 2.4 2.4 0 1.3-1.1 2.4-2.4 2.4-1.3 0-2.4-1-2.4-2.4zm-12.2 0c0-1.3 1.1-2.4 2.4-2.4 1.3 0 2.4 1.1 2.4 2.4 0 1.3-1.1 2.4-2.4 2.4-1.3 0-2.4-1-2.4-2.4zm-12.1 0c0-1.3 1.1-2.4 2.4-2.4 1.3 0 2.4 1.1 2.4 2.4 0 1.3-1.1 2.4-2.4 2.4-1.4 0-2.4-1-2.4-2.4zm-12.2 0c0-1.3 1.1-2.4 2.4-2.4 1.3 0 2.4 1.1 2.4 2.4 0 1.3-1.1 2.4-2.4 2.4-1.3 0-2.4-1-2.4-2.4zm-12.2 0c0-1.3 1.1-2.4 2.4-2.4 1.3 0 2.4 1.1 2.4 2.4 0 1.3-1.1 2.4-2.4 2.4-1.3 0-2.4-1-2.4-2.4zm-12.1 0c0-1.3 1.1-2.4 2.4-2.4 1.3 0 2.4 1.1 2.4 2.4 0 1.3-1.1 2.4-2.4 2.4-1.4 0-2.4-1-2.4-2.4zm-12.2 0c0-1.3 1.1-2.4 2.4-2.4 1.3 0 2.4 1.1 2.4 2.4 0 1.3-1.1 2.4-2.4 2.4-1.3 0-2.4-1-2.4-2.4zm-12.2 0c0-1.3 1.1-2.4 2.4-2.4 1.3 0 2.4 1.1 2.4 2.4 0 1.3-1.1 2.4-2.4 2.4-1.3 0-2.4-1-2.4-2.4zm-12.1 0c0-1.3 1.1-2.4 2.4-2.4 1.3 0 2.4 1.1 2.4 2.4 0 1.3-1.1 2.4-2.4 2.4-1.4 0-2.4-1-2.4-2.4zm-12.2 0c0-1.3 1.1-2.4 2.4-2.4 1.3 0 2.4 1.1 2.4 2.4 0 1.3-1.1 2.4-2.4 2.4-1.3 0-2.4-1-2.4-2.4zm-12.2 0c0-1.3 1.1-2.4 2.4-2.4 1.3 0 2.4 1.1 2.4 2.4 0 1.3-1.1 2.4-2.4 2.4-1.3 0-2.4-1-2.4-2.4zm-12.1 0c0-1.3 1.1-2.4 2.4-2.4 1.3 0 2.4 1.1 2.4 2.4 0 1.3-1.1 2.4-2.4 2.4-1.4 0-2.4-1-2.4-2.4zm-12.2 0c0-1.3 1.1-2.4 2.4-2.4 1.3 0 2.4 1.1 2.4 2.4 0 1.3-1.1 2.4-2.4 2.4-1.3 0-2.4-1-2.4-2.4zm-12.2 0c0-1.3 1.1-2.4 2.4-2.4 1.3 0 2.4 1.1 2.4 2.4 0 1.3-1.1 2.4-2.4 2.4-1.3 0-2.4-1-2.4-2.4zm-12.1 0c0-1.3 1.1-2.4 2.4-2.4 1.3 0 2.4 1.1 2.4 2.4 0 1.3-1.1 2.4-2.4 2.4-1.4 0-2.4-1-2.4-2.4zm-12.2 0c0-1.3 1.1-2.4 2.4-2.4 1.3 0 2.4 1.1 2.4 2.4 0 1.3-1.1 2.4-2.4 2.4-1.3 0-2.4-1-2.4-2.4zm-12.2 0c0-1.3 1.1-2.4 2.4-2.4 1.3 0 2.4 1.1 2.4 2.4 0 1.3-1.1 2.4-2.4 2.4-1.3 0-2.4-1-2.4-2.4zm-12.1 0c0-1.3 1.1-2.4 2.4-2.4 1.3 0 2.4 1.1 2.4 2.4 0 1.3-1.1 2.4-2.4 2.4-1.3 0-2.4-1-2.4-2.4zm-12.2 0c0-1.3 1.1-2.4 2.4-2.4 1.3 0 2.4 1.1 2.4 2.4 0 1.3-1.1 2.4-2.4 2.4-1.3 0-2.4-1-2.4-2.4zm-12.2 0c0-1.3 1.1-2.4 2.4-2.4 1.3 0 2.4 1.1 2.4 2.4 0 1.3-1.1 2.4-2.4 2.4-1.3 0-2.4-1-2.4-2.4zm-12.1 0c0-1.3 1.1-2.4 2.4-2.4 1.3 0 2.4 1.1 2.4 2.4 0 1.3-1.1 2.4-2.4 2.4-1.3 0-2.4-1-2.4-2.4zm-12.2 0c0-1.3 1.1-2.4 2.4-2.4 1.3 0 2.4 1.1 2.4 2.4 0 1.3-1.1 2.4-2.4 2.4-1.3 0-2.4-1-2.4-2.4zm-12.1 0c0-1.3 1.1-2.4 2.4-2.4 1.3 0 2.4 1.1 2.4 2.4 0 1.3-1.1 2.4-2.4 2.4-1.4 0-2.4-1-2.4-2.4zm-12.2 0c0-1.3 1.1-2.4 2.4-2.4 1.3 0 2.4 1.1 2.4 2.4 0 1.3-1.1 2.4-2.4 2.4-1.3 0-2.4-1-2.4-2.4zm-12.2 0c0-1.3 1.1-2.4 2.4-2.4 1.3 0 2.4 1.1 2.4 2.4 0 1.3-1.1 2.4-2.4 2.4-1.3 0-2.4-1-2.4-2.4zm-12.1 0c0-1.3 1.1-2.4 2.4-2.4 1.3 0 2.4 1.1 2.4 2.4 0 1.3-1.1 2.4-2.4 2.4-1.4 0-2.4-1-2.4-2.4zm-12.2 0c0-1.3 1.1-2.4 2.4-2.4 1.3 0 2.4 1.1 2.4 2.4 0 1.3-1.1 2.4-2.4 2.4-1.4 0-2.4-1-2.4-2.4zm-12.2 0c0-1.3 1.1-2.4 2.4-2.4 1.3 0 2.4 1.1 2.4 2.4 0 1.3-1.1 2.4-2.4 2.4-1.3 0-2.4-1-2.4-2.4zm-12.2 0c0-1.3 1.1-2.4 2.4-2.4 1.3 0 2.4 1.1 2.4 2.4 0 1.3-1.1 2.4-2.4 2.4-1.3 0-2.4-1-2.4-2.4zm-12.1 0c0-1.3 1.1-2.4 2.4-2.4 1.3 0 2.4 1.1 2.4 2.4 0 1.3-1.1 2.4-2.4 2.4-1.4 0-2.4-1-2.4-2.4zm-12.2 0c0-1.3 1.1-2.4 2.4-2.4 1.3 0 2.4 1.1 2.4 2.4 0 1.3-1.1 2.4-2.4 2.4-1.3 0-2.4-1-2.4-2.4zm-12.2 0c0-1.3 1.1-2.4 2.4-2.4 1.3 0 2.4 1.1 2.4 2.4 0 1.3-1.1 2.4-2.4 2.4-1.3 0-2.4-1-2.4-2.4zm-12.1 0c0-1.3 1.1-2.4 2.4-2.4 1.3 0 2.4 1.1 2.4 2.4 0 1.3-1.1 2.4-2.4 2.4-1.3 0-2.4-1-2.4-2.4zm-12.2 0c0-1.3 1.1-2.4 2.4-2.4 1.3 0 2.4 1.1 2.4 2.4 0 1.3-1.1 2.4-2.4 2.4-1.3 0-2.4-1-2.4-2.4zm-12.2 0c0-1.3 1.1-2.4 2.4-2.4 1.3 0 2.4 1.1 2.4 2.4 0 1.3-1.1 2.4-2.4 2.4-1.3 0-2.4-1-2.4-2.4zm-12.1 0c0-1.3 1.1-2.4 2.4-2.4 1.3 0 2.4 1.1 2.4 2.4 0 1.3-1.1 2.4-2.4 2.4-1.3 0-2.4-1-2.4-2.4zm-12.2 0c0-1.3 1.1-2.4 2.4-2.4 1.3 0 2.4 1.1 2.4 2.4 0 1.3-1.1 2.4-2.4 2.4-1.3 0-2.4-1-2.4-2.4zm-12.1 0c0-1.3 1.1-2.4 2.4-2.4 1.3 0 2.4 1.1 2.4 2.4 0 1.3-1.1 2.4-2.4 2.4-1.4 0-2.4-1-2.4-2.4zm-12.2 0c0-1.3 1.1-2.4 2.4-2.4 1.3 0 2.4 1.1 2.4 2.4 0 1.3-1.1 2.4-2.4 2.4-1.3 0-2.4-1-2.4-2.4zm-12.2 0c0-1.3 1.1-2.4 2.4-2.4 1.3 0 2.4 1.1 2.4 2.4 0 1.3-1.1 2.4-2.4 2.4-1.3 0-2.4-1-2.4-2.4zm-12.1 0c0-1.3 1.1-2.4 2.4-2.4 1.3 0 2.4 1.1 2.4 2.4 0 1.3-1.1 2.4-2.4 2.4-1.4 0-2.4-1-2.4-2.4zm-12.2 0c0-1.3 1.1-2.4 2.4-2.4 1.3 0 2.4 1.1 2.4 2.4 0 1.3-1.1 2.4-2.4 2.4-1.3 0-2.4-1-2.4-2.4zm-12.2 0c0-1.3 1.1-2.4 2.4-2.4 1.3 0 2.4 1.1 2.4 2.4 0 1.3-1.1 2.4-2.4 2.4-1.3 0-2.4-1-2.4-2.4zm-12.1 0c0-1.3 1.1-2.4 2.4-2.4 1.3 0 2.4 1.1 2.4 2.4 0 1.3-1.1 2.4-2.4 2.4-1.4 0-2.4-1-2.4-2.4zm-12.2 0c0-1.3 1.1-2.4 2.4-2.4 1.3 0 2.4 1.1 2.4 2.4 0 1.3-1.1 2.4-2.4 2.4-1.3 0-2.4-1-2.4-2.4zm-12.2 0c0-1.3 1.1-2.4 2.4-2.4 1.3 0 2.4 1.1 2.4 2.4 0 1.3-1.1 2.4-2.4 2.4-1.3 0-2.4-1-2.4-2.4zm-12.1 0c0-1.3 1.1-2.4 2.4-2.4 1.3 0 2.4 1.1 2.4 2.4 0 1.3-1.1 2.4-2.4 2.4-1.4 0-2.4-1-2.4-2.4zm-12.2 0c0-1.3 1.1-2.4 2.4-2.4 1.3 0 2.4 1.1 2.4 2.4 0 1.3-1.1 2.4-2.4 2.4-1.3 0-2.4-1-2.4-2.4zm-12.2 0c0-1.3 1.1-2.4 2.4-2.4 1.3 0 2.4 1.1 2.4 2.4 0 1.3-1.1 2.4-2.4 2.4-1.3 0-2.4-1-2.4-2.4zm-12.1 0c0-1.3 1.1-2.4 2.4-2.4 1.3 0 2.4 1.1 2.4 2.4 0 1.3-1.1 2.4-2.4 2.4-1.4 0-2.4-1-2.4-2.4zm-12.2 0c0-1.3 1.1-2.4 2.4-2.4 1.3 0 2.4 1.1 2.4 2.4 0 1.3-1.1 2.4-2.4 2.4-1.3 0-2.4-1-2.4-2.4zm-12.2 0c0-1.3 1.1-2.4 2.4-2.4 1.3 0 2.4 1.1 2.4 2.4 0 1.3-1.1 2.4-2.4 2.4-1.3 0-2.4-1-2.4-2.4zm-12.1 0c0-1.3 1.1-2.4 2.4-2.4 1.3 0 2.4 1.1 2.4 2.4 0 1.3-1.1 2.4-2.4 2.4-1.3 0-2.4-1-2.4-2.4zm-12.2 0c0-1.3 1.1-2.4 2.4-2.4 1.3 0 2.4 1.1 2.4 2.4 0 1.3-1.1 2.4-2.4 2.4-1.3 0-2.4-1-2.4-2.4zm-12.2 0c0-1.3 1.1-2.4 2.4-2.4 1.3 0 2.4 1.1 2.4 2.4 0 1.3-1.1 2.4-2.4 2.4-1.3 0-2.4-1-2.4-2.4zm-12.1 0c0-1.3 1.1-2.4 2.4-2.4 1.3 0 2.4 1.1 2.4 2.4 0 1.3-1.1 2.4-2.4 2.4-1.3 0-2.4-1-2.4-2.4zm-12.2 0c0-1.3 1.1-2.4 2.4-2.4 1.3 0 2.4 1.1 2.4 2.4 0 1.3-1.1 2.4-2.4 2.4-1.3 0-2.4-1-2.4-2.4zm-12.2 0c0-1.3 1.1-2.4 2.4-2.4 1.3 0 2.4 1.1 2.4 2.4 0 1.3-1.1 2.4-2.4 2.4-1.3 0-2.4-1-2.4-2.4zm-12.1 0c0-1.3 1.1-2.4 2.4-2.4 1.3 0 2.4 1.1 2.4 2.4 0 1.3-1.1 2.4-2.4 2.4-1.3 0-2.4-1-2.4-2.4zm-12.2 0c0-1.3 1.1-2.4 2.4-2.4 1.3 0 2.4 1.1 2.4 2.4 0 1.3-1.1 2.4-2.4 2.4-1.3 0-2.4-1-2.4-2.4zm-12.1 0c0-1.3 1.1-2.4 2.4-2.4 1.3 0 2.4 1.1 2.4 2.4 0 1.3-1.1 2.4-2.4 2.4-1.4 0-2.4-1-2.4-2.4zm-12.2 0c0-1.3 1.1-2.4 2.4-2.4 1.3 0 2.4 1.1 2.4 2.4 0 1.3-1.1 2.4-2.4 2.4-1.3 0-2.4-1-2.4-2.4zm-12.2 0c0-1.3 1.1-2.4 2.4-2.4 1.3 0 2.4 1.1 2.4 2.4 0 1.3-1.1 2.4-2.4 2.4-1.3 0-2.4-1-2.4-2.4zm-12.1 0c0-1.3 1.1-2.4 2.4-2.4 1.3 0 2.4 1.1 2.4 2.4 0 1.3-1.1 2.4-2.4 2.4-1.4 0-2.4-1-2.4-2.4zm-12.2 0c0-1.3 1.1-2.4 2.4-2.4 1.3 0 2.4 1.1 2.4 2.4 0 1.3-1.1 2.4-2.4 2.4-1.3 0-2.4-1-2.4-2.4zm-12.2 0c0-1.3 1.1-2.4 2.4-2.4 1.3 0 2.4 1.1 2.4 2.4 0 1.3-1.1 2.4-2.4 2.4-1.3 0-2.4-1-2.4-2.4zm-12.1 0c0-1.3 1.1-2.4 2.4-2.4 1.3 0 2.4 1.1 2.4 2.4 0 1.3-1.1 2.4-2.4 2.4-1.4 0-2.4-1-2.4-2.4zm-12.2 0c0-1.3 1.1-2.4 2.4-2.4 1.3 0 2.4 1.1 2.4 2.4 0 1.3-1.1 2.4-2.4 2.4-1.3 0-2.4-1-2.4-2.4zm-12.2 0c0-1.3 1.1-2.4 2.4-2.4 1.3 0 2.4 1.1 2.4 2.4 0 1.3-1.1 2.4-2.4 2.4-1.3 0-2.4-1-2.4-2.4zm-12.1 0c0-1.3 1.1-2.4 2.4-2.4 1.3 0 2.4 1.1 2.4 2.4 0 1.3-1.1 2.4-2.4 2.4-1.4 0-2.4-1-2.4-2.4zm-12.2 0c0-1.3 1.1-2.4 2.4-2.4 1.3 0 2.4 1.1 2.4 2.4 0 1.3-1.1 2.4-2.4 2.4-1.3 0-2.4-1-2.4-2.4zm-12.2 0c0-1.3 1.1-2.4 2.4-2.4 1.3 0 2.4 1.1 2.4 2.4 0 1.3-1.1 2.4-2.4 2.4-1.3 0-2.4-1-2.4-2.4zm-12.1 0c0-1.3 1.1-2.4 2.4-2.4 1.3 0 2.4 1.1 2.4 2.4 0 1.3-1.1 2.4-2.4 2.4-1.4 0-2.4-1-2.4-2.4zm-12.2 0c0-1.3 1.1-2.4 2.4-2.4 1.3 0 2.4 1.1 2.4 2.4 0 1.3-1.1 2.4-2.4 2.4-1.3 0-2.4-1-2.4-2.4zm-12.2 0c0-1.3 1.1-2.4 2.4-2.4 1.3 0 2.4 1.1 2.4 2.4 0 1.3-1.1 2.4-2.4 2.4-1.3 0-2.4-1-2.4-2.4zm-12.1 0c0-1.3 1.1-2.4 2.4-2.4 1.3 0 2.4 1.1 2.4 2.4 0 1.3-1.1 2.4-2.4 2.4-1.4 0-2.4-1-2.4-2.4zm-12.2 0c0-1.3 1.1-2.4 2.4-2.4 1.3 0 2.4 1.1 2.4 2.4 0 1.3-1.1 2.4-2.4 2.4-1.3 0-2.4-1-2.4-2.4z" class="st0"/><path id="path88" d="M1414.6 253.6c-.7 0-1.3-.2-1.7-.7-.5-.5-.7-1.1-.7-1.7 0-.3 0-.6.2-.9.1-.3.3-.6.5-.8.1-.1.2-.2.4-.3.1-.1.3-.2.4-.2.1-.1.3-.1.4-.1.3-.1.6-.1.9 0 .2 0 .3.1.5.1.1 0 .3.1.4.2.1.1.3.2.4.3.2.2.4.5.5.8s.2.6.2.9c0 .6-.2 1.2-.7 1.7-.5.5-1.1.7-1.7.7z" class="st0"/></g></g></svg>