<svg id="Layer_1" xmlns="http://www.w3.org/2000/svg" viewBox="0 0 1058.4 167.9"><style>.st0{fill:#FFFFFF;}</style><path class="st0" d="M162.1 106.1c0 29-23.5 52.6-52.4 52.6H94.4V88.1h2.9c16.1 0 26 12.8 26 24.7v1.5h4.6v-58h-4.6v1.5c0 12.4-9.7 25.3-26 25.3h-2.9V12.5h16.5c24.7 0 44.8 20 44.8 44.6v1.5h4.8V7.5H32.9v5h27.8v146.2H32.9v5h134.2v-59.2h-5v1.6zm-4.8-60.3c-3.7-15.2-14.8-27.7-29.6-33.3h29.6v33.3zM77.6 12.6h13.7v146.1H77.6V12.6zm50.1 146.2c18.6-6.4 32.4-22.2 36.3-41.3v41.3h-36.3zm-24.3-73.2c11.2-2.2 18.4-10.2 21.4-18.7V104c-3-8.3-10.2-16.2-21.4-18.4zM254 12.5h27.8v146.2H254v5h89.2v-5h-27.8V12.5h27.8v-5H254v5zm44.3 0h14.1v146.3h-14.1V12.5zM536.2 12.5h27.1l-42.5 110.7-42.7-110.7h29v-5h-94.2v5h30.2l60.6 151.3h4l60.9-151.3h28.2v-5h-60.7v5zm-75.8 0h14.5l43.6 115.9-5.8 14.6-52.3-130.5zM795.8 106.1c0 29-23.5 52.6-52.4 52.6H728V88.1h2.9c16.1 0 26 12.8 26 24.7v1.5h4.6v-58h-4.6v1.5c0 12.4-9.7 25.3-26 25.3H728V12.5h16.4c24.7 0 44.8 20 44.8 44.6v1.5h4.8V7.5H666.6v5h27.8v146.2h-27.8v5h134.2v-59.2h-5v1.6zM791 45.8c-3.7-15.2-14.8-27.7-29.7-33.3H791v33.3zm-80-33.3h14v146.3h-14V12.5zm50.3 146.3c18.6-6.4 32.4-22.2 36.3-41.3v41.3h-36.3zM737 85.6c11.2-2.2 18.4-10.2 21.4-18.7V104c-2.9-8.3-10.2-16.2-21.4-18.4zM989.1 7.5v5h23.4l-36.6 72.9-36.5-72.9h23v-5h-86.2v5h28.3l40.4 80.4v65.9h-27.8v5h89.2v-5h-27.8V91.1l39.4-78.6h28.3v-5h-57.1zm-27.3 83.2L923 12.5h12.8l39.5 78.9.1.1v67.2h-13.7v-68z"/></svg>