<svg id="Layer_1" xmlns="http://www.w3.org/2000/svg" viewBox="0 0 664.2 155.8"><style>.st0{fill:#77787B;}</style><path class="st0" d="M117.5 93.6c0 17.2-13.9 31.1-31 31.1h-9.1V82.9h1.7c9.5 0 15.4 7.6 15.4 14.6v.9h2.7V64.1h-2.7v.9c0 7.3-5.8 14.9-15.4 14.9h-1.7V38.2h9.7c14.6 0 26.5 11.8 26.5 26.4v.9h2.8V35.3H41.1v3h16.4v86.5H41.1v3h79.4v-35h-3v.8zm-2.9-35.7c-2.2-9-8.8-16.4-17.5-19.7h17.5v19.7zM67.5 38.3h8.1v86.4h-8.1V38.3zm29.6 86.4c11-3.8 19.1-13.1 21.5-24.4v24.4H97.1zM82.7 81.5c6.6-1.3 10.9-6 12.6-11v21.9c-1.7-5-5.9-9.6-12.6-10.9zm89.1-43.3h16.4v86.5h-16.4v3h52.8v-3h-16.4V38.2h16.4v-3h-52.8v3zm26.2 0h8.3v86.5H198V38.2zm140.7 0h16l-25.2 65.5-25.2-65.5h17.1v-3h-55.7v3h17.8l35.8 89.5h2.4l36-89.5h16.7v-3h-35.9v3zm-44.8 0h8.6l25.8 68.6-3.5 8.7-30.9-77.3zm198.3 55.4c0 17.2-13.9 31.1-31 31.1h-9V82.9h1.7c9.5 0 15.4 7.6 15.4 14.6v.9h2.7V64.1h-2.7v.9c0 7.3-5.8 14.9-15.4 14.9h-1.7V38.2h9.7c14.6 0 26.5 11.8 26.5 26.4v.9h2.8V35.3h-75.4v3h16.4v86.5h-16.4v3h79.4v-35h-3v.8zm-2.8-35.7c-2.2-9-8.8-16.4-17.6-19.7h17.6v19.7zm-47.3-19.7h8.3v86.5h-8.3V38.2zm29.8 86.5c11-3.8 19.1-13.1 21.5-24.4v24.4h-21.5zm-14.4-43.2c6.6-1.3 10.9-6 12.6-11v21.9c-1.7-5-6-9.6-12.6-10.9zm149.1-46.2v3h13.8l-21.6 43.1-21.6-43.1h13.6v-3h-51v3h16.8l23.9 47.5v38.9H564v3h52.8v-3h-16.4v-40l23.3-46.5h16.8v-3h-33.9zm-16.1 49.2l-22.9-46.2h7.6L598.6 85v39.9h-8.1V84.5z"/></svg>