<svg xmlns="http://www.w3.org/2000/svg" id="Layer_1" viewBox="0 0 80 81.1"><style>.st0{fill:#A9C9C3;}</style><path d="M41.5 7C23 7 8 22 8 40.5S23 74 41.5 74 75 59 75 40.5 60 7 41.5 7zm3.7 56c-1 .9-2.3 1.4-4 1.4-1.7 0-3.1-.5-4-1.4-1-.9-1.4-2.2-1.4-3.9 0-1.7.5-3.1 1.4-4 .9-.9 2.3-1.3 4.1-1.3 1.7 0 3.1.5 4 1.4.9.9 1.4 2.2 1.4 3.9-.1 1.7-.5 3-1.5 3.9zm10.3-28.4c-1 1.7-3 3.5-5.9 5.6-2 1.5-3.3 2.6-3.8 3.4-.5.8-.8 1.8-.8 3v1.9h-8.2v-2.3c0-2 .4-3.7 1.3-5.2s2.4-3 4.7-4.7c2.2-1.6 3.6-2.8 4.3-3.8.7-1 1-2.1 1-3.3 0-1.3-.5-2.4-1.5-3.1S44.2 25 42.4 25c-3.1 0-6.7 1-10.6 3.1l-3.4-6.8c4.6-2.6 9.5-3.9 14.7-3.9 4.3 0 7.7 1 10.2 3.1 2.5 2.1 3.8 4.8 3.8 8.2-.1 2.3-.6 4.3-1.6 5.9z" class="st0"/></svg>