<svg xmlns="http://www.w3.org/2000/svg" id="Layer_1" viewBox="0 0 69.1 76"><style>.st0{fill:#FFFFFF;}</style><path id="USER_6_" d="M67 65c0 1.7-1.3 3-3 3H6c-1.7 0-3-1.3-3-3 0 0 0-10.9 8-14.9 5.1-2.5 3.1-.5 9.3-3 6.2-2.6 7.7-3.5 7.7-3.5l.1-5.9s-2.3-1.8-3-7.4c-1.5.4-1.9-1.7-2-3.1-.1-1.3-.8-5.4.9-5-.4-2.7-.6-5.2-.5-6.5.3-4.6 4.8-9.3 11.5-9.7 8 .3 11.2 5.1 11.6 9.7.1 1.3-.2 3.8-.5 6.5 1.8-.4 1 3.7.9 5-.1 1.4-.6 3.5-2 3.1-.7 5.6-3 7.3-3 7.3l.1 5.9s1.5.8 7.7 3.4c6.2 2.6 4.3.6 9.3 3.2C67 54.1 67 65 67 65z" class="st0"/></svg>